<?xml version="1.0" standalone="no"?><!DOCTYPE svg PUBLIC "-//W3C//DTD SVG 1.1//EN" "http://www.w3.org/Graphics/SVG/1.1/DTD/svg11.dtd"><svg t="1503478102863" class="icon" style="" viewBox="0 0 1024 1024" version="1.1" xmlns="http://www.w3.org/2000/svg" p-id="5172" xmlns:xlink="http://www.w3.org/1999/xlink" width="200" height="200"><defs><style type="text/css"></style></defs><path d="M731.457536 819.644416c65.83296 0 118.71744-53.260288 118.71744-118.960128 0-65.698816-52.883456-118.95808-118.71744-118.95808s-119.201792 53.259264-119.201792 118.95808c0 65.69984 53.367808 118.960128 119.201792 118.960128M292.1472 918.777856c65.206272 0 119.853056-53.260288 119.853056-118.960128S357.353472 680.8576 292.1472 680.8576 174.08 734.117888 174.08 799.817728s52.860928 118.960128 118.0672 118.960128" fill="#FFF200" p-id="5173"></path><path d="M731.457536 819.644416c-65.833984 0-119.201792-53.260288-119.201792-118.960128 0-65.698816 53.367808-118.95808 119.201792-118.95808 60.138496 0 109.461504 44.445696 117.547008 102.216704 0.321536 10.79296 0.512 16.908288 0.52736 17.354752l0.63488-0.02048c-0.31744 65.426432-53.074944 118.367232-118.709248 118.367232M292.1472 918.777856c-65.206272 0-118.0672-53.260288-118.0672-118.960128S226.940928 680.8576 292.1472 680.8576s119.853056 53.260288 119.853056 118.960128S357.353472 918.777856 292.1472 918.777856m597.732352-238.29504c-2.279424-76.5952-10.348544-361.951232-10.348544-561.383424 0-16.427008-6.912-30.052352-19.98848-39.401472-25.561088-18.2784-73.94304-18.848768-152.250368-1.79712-57.1392 12.443648-116.619264 31.711232-146.989056 42.089472a1848.23296 1848.23296 0 0 1-12.967936 4.359168c-33.614848 11.204608-71.712768 23.904256-101.956608 49.242112-17.074176 14.30528-30.082048 31.52384-38.663168 51.17952-9.537536 21.848064-13.94688 47.483904-13.10208 76.196864 4.502528 153.156608 9.986048 294.701056 13.85472 387.772416a162.142208 162.142208 0 0 0-2.17088-2.19136c-14.780416-14.589952-31.944704-26.058752-51.01568-34.091008-19.787776-8.334336-40.69376-12.560384-62.134272-12.560384-21.48864 0-42.353664 4.2496-62.015488 12.627968-18.950144 8.075264-35.954688 19.622912-50.542592 34.321408-14.5664 14.676992-26.005504 31.772672-33.997824 50.811904-8.274944 19.713024-12.47232 40.626176-12.47232 62.158848s4.197376 42.445824 12.47232 62.158848c7.99232 19.039232 19.431424 36.134912 33.9968 50.811904 14.588928 14.698496 31.593472 26.246144 50.543616 34.321408 19.6608 8.379392 40.526848 12.627968 62.015488 12.627968 21.441536 0 42.346496-4.226048 62.134272-12.560384 19.070976-8.032256 36.235264-19.501056 51.01568-34.08896 14.861312-14.666752 26.55232-31.736832 34.752512-50.737152 8.566784-19.849216 12.910592-40.88832 12.910592-62.533632 0-0.315392-0.01024-0.62976-0.012288-0.945152l0.313344-0.01536c-0.10752-2.300928-10.888192-233.171968-18.705408-499.093504-1.246208-42.3936 10.551296-72.508416 37.128192-94.774272 24.276992-20.338688 56.978432-31.240192 88.603648-41.783296 4.497408-1.498112 8.928256-2.975744 13.2608-4.456448 29.53728-10.093568 87.3216-28.819456 142.457856-40.82688 90.03008-19.60448 114.390016-8.712192 119.713792-4.90496 1.970176 1.409024 2.850816 2.62144 2.850816 6.08256 0 149.971968 4.54656 348.274688 7.7824 470.443008-0.607232-0.630784-1.214464-1.26464-1.835008-1.887232-14.6432-14.696448-31.72352-26.236928-50.765824-34.299904-19.729408-8.354816-40.68864-12.591104-62.29504-12.591104-21.593088 0-42.563584 4.230144-62.326784 12.572672-19.075072 8.050688-36.1984 19.570688-50.895872 34.23744-14.702592 14.671872-26.251264 31.770624-34.32448 50.82112-8.3712 19.749888-12.61568 40.707072-12.61568 62.287872 0 21.581824 4.24448 42.539008 12.61568 62.28992 8.073216 19.048448 19.621888 36.1472 34.32448 50.82112 14.697472 14.665728 31.8208 26.184704 50.895872 34.236416 19.7632 8.342528 40.733696 12.572672 62.326784 12.572672 21.6064 0 42.565632-4.236288 62.29504-12.591104 19.042304-8.062976 36.122624-19.603456 50.765824-34.300928 14.62272-14.67392 26.10176-31.780864 34.11968-50.8416 8.292352-19.712 12.496896-40.635392 12.496896-62.186496 0-6.802432-0.421888-13.543424-1.255424-20.202496" fill="#000000" p-id="5174"></path></svg>